<mxfile host="Electron" modified="2023-05-10T15:02:21.824Z" agent="Mozilla/5.0 (Macintosh; Intel Mac OS X 10_15_7) AppleWebKit/537.36 (KHTML, like Gecko) draw.io/21.1.2 Chrome/106.0.5249.199 Electron/21.4.3 Safari/537.36" etag="okyWMQK_MPCEhgY7utkY" version="21.1.2" type="device">
  <diagram name="페이지-1" id="AninEFvJT3ZKiQwhQTG5">
    <mxGraphModel dx="3720" dy="4236" grid="1" gridSize="10" guides="1" tooltips="1" connect="1" arrows="1" fold="1" page="1" pageScale="1" pageWidth="827" pageHeight="1169" math="0" shadow="0">
      <root>
        <mxCell id="0" />
        <mxCell id="1" parent="0" />
        <mxCell id="7p5_hDNYckGtaCDeZ9yD-4" value="" style="group" vertex="1" connectable="0" parent="1">
          <mxGeometry x="300" y="-930" width="1080" height="490" as="geometry" />
        </mxCell>
        <mxCell id="CvlLujGHtmnseyJ1YzDa-6" value="" style="rounded=0;whiteSpace=wrap;html=1;fillColor=none;" parent="7p5_hDNYckGtaCDeZ9yD-4" vertex="1">
          <mxGeometry width="1080" height="490" as="geometry" />
        </mxCell>
        <mxCell id="2z16GnawZwJ3g6S01oZl-39" value="" style="group;strokeColor=none;" parent="7p5_hDNYckGtaCDeZ9yD-4" vertex="1" connectable="0">
          <mxGeometry x="100" y="107.03703703703704" width="610" height="125.92592592592592" as="geometry" />
        </mxCell>
        <mxCell id="GkUKL7oNnA0jOqPk9D3w-11" value="사용자" style="shape=umlActor;verticalLabelPosition=bottom;verticalAlign=top;html=1;outlineConnect=0;" parent="2z16GnawZwJ3g6S01oZl-39" vertex="1">
          <mxGeometry x="10" y="18.88888888888889" width="30" height="81.85185185185186" as="geometry" />
        </mxCell>
        <mxCell id="GkUKL7oNnA0jOqPk9D3w-27" value=":&amp;nbsp;AuthUI" style="rounded=0;whiteSpace=wrap;html=1;align=left;" parent="2z16GnawZwJ3g6S01oZl-39" vertex="1">
          <mxGeometry x="210" y="18.88888888888889" width="120" height="75.55555555555556" as="geometry" />
        </mxCell>
        <mxCell id="GkUKL7oNnA0jOqPk9D3w-28" value=":&amp;nbsp;Auth" style="rounded=0;whiteSpace=wrap;html=1;align=left;" parent="2z16GnawZwJ3g6S01oZl-39" vertex="1">
          <mxGeometry x="479" y="18.88888888888889" width="120" height="75.55555555555556" as="geometry" />
        </mxCell>
        <mxCell id="n26gRQSFjIvoSWG-YcQ6-16" value="" style="endArrow=none;html=1;rounded=0;exitX=0.5;exitY=0.5;exitDx=0;exitDy=0;exitPerimeter=0;entryX=0;entryY=0.5;entryDx=0;entryDy=0;" parent="2z16GnawZwJ3g6S01oZl-39" source="GkUKL7oNnA0jOqPk9D3w-11" target="GkUKL7oNnA0jOqPk9D3w-27" edge="1">
          <mxGeometry width="50" height="50" relative="1" as="geometry">
            <mxPoint x="280" y="113.33333333333334" as="sourcePoint" />
            <mxPoint x="330" y="50.370370370370374" as="targetPoint" />
          </mxGeometry>
        </mxCell>
        <mxCell id="n26gRQSFjIvoSWG-YcQ6-17" value="" style="endArrow=none;html=1;rounded=0;exitX=0;exitY=0.5;exitDx=0;exitDy=0;entryX=1;entryY=0.5;entryDx=0;entryDy=0;" parent="2z16GnawZwJ3g6S01oZl-39" source="GkUKL7oNnA0jOqPk9D3w-28" target="GkUKL7oNnA0jOqPk9D3w-27" edge="1">
          <mxGeometry width="50" height="50" relative="1" as="geometry">
            <mxPoint x="280" y="113.33333333333334" as="sourcePoint" />
            <mxPoint x="330" y="50.370370370370374" as="targetPoint" />
          </mxGeometry>
        </mxCell>
        <mxCell id="n26gRQSFjIvoSWG-YcQ6-24" value="" style="endArrow=classic;html=1;rounded=0;" parent="2z16GnawZwJ3g6S01oZl-39" edge="1">
          <mxGeometry width="50" height="50" relative="1" as="geometry">
            <mxPoint x="80" y="37.77777777777778" as="sourcePoint" />
            <mxPoint x="140" y="37.77777777777778" as="targetPoint" />
          </mxGeometry>
        </mxCell>
        <mxCell id="n26gRQSFjIvoSWG-YcQ6-25" value="" style="endArrow=classic;html=1;rounded=0;" parent="2z16GnawZwJ3g6S01oZl-39" edge="1">
          <mxGeometry width="50" height="50" relative="1" as="geometry">
            <mxPoint x="380" y="37.77777777777778" as="sourcePoint" />
            <mxPoint x="440" y="37.77777777777778" as="targetPoint" />
          </mxGeometry>
        </mxCell>
        <mxCell id="2z16GnawZwJ3g6S01oZl-21" value="&lt;font style=&quot;font-size: 15px;&quot;&gt;1. startInterface()&lt;/font&gt;" style="text;html=1;align=center;verticalAlign=middle;resizable=0;points=[];autosize=1;strokeColor=none;fillColor=none;" parent="2z16GnawZwJ3g6S01oZl-39" vertex="1">
          <mxGeometry x="339" y="88.14814814814815" width="140" height="30" as="geometry" />
        </mxCell>
        <mxCell id="2z16GnawZwJ3g6S01oZl-22" value="" style="endArrow=classic;html=1;rounded=0;" parent="2z16GnawZwJ3g6S01oZl-39" edge="1">
          <mxGeometry width="50" height="50" relative="1" as="geometry">
            <mxPoint x="439" y="75.55555555555564" as="sourcePoint" />
            <mxPoint x="379" y="75.55555555555564" as="targetPoint" />
          </mxGeometry>
        </mxCell>
        <mxCell id="2z16GnawZwJ3g6S01oZl-23" value="&lt;font style=&quot;font-size: 15px;&quot;&gt;2. selectWithdrawal()&lt;/font&gt;" style="text;html=1;align=center;verticalAlign=middle;resizable=0;points=[];autosize=1;strokeColor=none;fillColor=none;" parent="2z16GnawZwJ3g6S01oZl-39" vertex="1">
          <mxGeometry x="40" width="160" height="30" as="geometry" />
        </mxCell>
        <mxCell id="2z16GnawZwJ3g6S01oZl-24" value="&lt;font style=&quot;font-size: 15px;&quot;&gt;2.1 withdraw()&lt;/font&gt;" style="text;html=1;align=center;verticalAlign=middle;resizable=0;points=[];autosize=1;strokeColor=none;fillColor=none;" parent="2z16GnawZwJ3g6S01oZl-39" vertex="1">
          <mxGeometry x="350" width="120" height="30" as="geometry" />
        </mxCell>
        <mxCell id="CvlLujGHtmnseyJ1YzDa-9" value="&lt;span style=&quot;font-size: 18px;&quot;&gt;회원 탈퇴&lt;/span&gt;" style="text;html=1;align=center;verticalAlign=middle;resizable=0;points=[];autosize=1;strokeColor=none;fillColor=none;" parent="7p5_hDNYckGtaCDeZ9yD-4" vertex="1">
          <mxGeometry width="90" height="40" as="geometry" />
        </mxCell>
        <mxCell id="CvlLujGHtmnseyJ1YzDa-16" value=":Member" style="rounded=0;whiteSpace=wrap;html=1;movable=1;resizable=1;rotatable=1;deletable=1;editable=1;locked=0;connectable=1;align=left;" parent="7p5_hDNYckGtaCDeZ9yD-4" vertex="1">
          <mxGeometry x="559" y="340" width="160" height="56.9" as="geometry" />
        </mxCell>
        <mxCell id="CvlLujGHtmnseyJ1YzDa-20" value="" style="endArrow=none;html=1;rounded=0;entryX=0.5;entryY=0;entryDx=0;entryDy=0;exitX=0.5;exitY=1;exitDx=0;exitDy=0;" parent="7p5_hDNYckGtaCDeZ9yD-4" source="GkUKL7oNnA0jOqPk9D3w-28" target="CvlLujGHtmnseyJ1YzDa-16" edge="1">
          <mxGeometry width="50" height="50" relative="1" as="geometry">
            <mxPoint x="690" y="750" as="sourcePoint" />
            <mxPoint x="740" y="700" as="targetPoint" />
          </mxGeometry>
        </mxCell>
        <mxCell id="CvlLujGHtmnseyJ1YzDa-28" value="&lt;font style=&quot;font-size: 15px;&quot;&gt;2.1.1 deleteMember()&lt;/font&gt;" style="text;html=1;align=center;verticalAlign=middle;resizable=0;points=[];autosize=1;strokeColor=none;fillColor=none;" parent="7p5_hDNYckGtaCDeZ9yD-4" vertex="1">
          <mxGeometry x="465.0037931034484" y="249.99896551724146" width="170" height="30" as="geometry" />
        </mxCell>
        <mxCell id="CvlLujGHtmnseyJ1YzDa-29" value="" style="endArrow=classic;html=1;rounded=0;" parent="7p5_hDNYckGtaCDeZ9yD-4" edge="1">
          <mxGeometry width="50" height="50" relative="1" as="geometry">
            <mxPoint x="625.33" y="240" as="sourcePoint" />
            <mxPoint x="625.33" y="300" as="targetPoint" />
          </mxGeometry>
        </mxCell>
        <mxCell id="7p5_hDNYckGtaCDeZ9yD-1" value="deleteMember:Member" style="rounded=0;whiteSpace=wrap;html=1;movable=1;resizable=1;rotatable=1;deletable=1;editable=1;locked=0;connectable=1;align=left;" vertex="1" parent="7p5_hDNYckGtaCDeZ9yD-4">
          <mxGeometry x="900" y="340" width="160" height="56.9" as="geometry" />
        </mxCell>
        <mxCell id="7p5_hDNYckGtaCDeZ9yD-2" value="" style="endArrow=none;html=1;rounded=0;exitX=1;exitY=0.5;exitDx=0;exitDy=0;entryX=0;entryY=0.5;entryDx=0;entryDy=0;" edge="1" parent="7p5_hDNYckGtaCDeZ9yD-4" source="CvlLujGHtmnseyJ1YzDa-16" target="7p5_hDNYckGtaCDeZ9yD-1">
          <mxGeometry width="50" height="50" relative="1" as="geometry">
            <mxPoint x="780" y="330" as="sourcePoint" />
            <mxPoint x="830" y="280" as="targetPoint" />
          </mxGeometry>
        </mxCell>
        <mxCell id="7p5_hDNYckGtaCDeZ9yD-3" value="&lt;font style=&quot;font-size: 15px;&quot;&gt;2.1.1.1 ~Member()&lt;/font&gt;" style="text;html=1;align=center;verticalAlign=middle;resizable=0;points=[];autosize=1;strokeColor=none;fillColor=none;" vertex="1" parent="7p5_hDNYckGtaCDeZ9yD-4">
          <mxGeometry x="740.0037931034484" y="329.99896551724146" width="150" height="30" as="geometry" />
        </mxCell>
        <mxCell id="7p5_hDNYckGtaCDeZ9yD-5" value="" style="group" vertex="1" connectable="0" parent="1">
          <mxGeometry x="300" y="-1400" width="1010" height="350" as="geometry" />
        </mxCell>
        <mxCell id="CvlLujGHtmnseyJ1YzDa-10" value="" style="rounded=0;whiteSpace=wrap;html=1;fillColor=none;" parent="7p5_hDNYckGtaCDeZ9yD-5" vertex="1">
          <mxGeometry width="1010" height="350" as="geometry" />
        </mxCell>
        <mxCell id="2z16GnawZwJ3g6S01oZl-38" value="" style="group;strokeColor=none;" parent="7p5_hDNYckGtaCDeZ9yD-5" vertex="1" connectable="0">
          <mxGeometry x="85" y="80" width="620" height="120" as="geometry" />
        </mxCell>
        <mxCell id="Uw-pVoqwRQZvUnRisrzm-1" value="사용자" style="shape=umlActor;verticalLabelPosition=bottom;verticalAlign=top;html=1;outlineConnect=0;" parent="2z16GnawZwJ3g6S01oZl-38" vertex="1">
          <mxGeometry x="10" y="21" width="40" height="78" as="geometry" />
        </mxCell>
        <mxCell id="Uw-pVoqwRQZvUnRisrzm-2" value=":AuthUI" style="rounded=0;whiteSpace=wrap;html=1;align=left;" parent="2z16GnawZwJ3g6S01oZl-38" vertex="1">
          <mxGeometry x="206.66666666666669" y="27" width="126.29629629629632" height="66" as="geometry" />
        </mxCell>
        <mxCell id="Uw-pVoqwRQZvUnRisrzm-3" value=":Auth" style="rounded=0;whiteSpace=wrap;html=1;align=left;" parent="2z16GnawZwJ3g6S01oZl-38" vertex="1">
          <mxGeometry x="477.5537037037038" y="27" width="126.29629629629632" height="66" as="geometry" />
        </mxCell>
        <mxCell id="n26gRQSFjIvoSWG-YcQ6-12" value="" style="endArrow=none;html=1;rounded=0;exitX=0.5;exitY=0.5;exitDx=0;exitDy=0;exitPerimeter=0;" parent="2z16GnawZwJ3g6S01oZl-38" source="Uw-pVoqwRQZvUnRisrzm-1" target="Uw-pVoqwRQZvUnRisrzm-2" edge="1">
          <mxGeometry width="50" height="50" relative="1" as="geometry">
            <mxPoint x="413.33333333333337" y="216" as="sourcePoint" />
            <mxPoint x="470.7407407407408" y="156" as="targetPoint" />
          </mxGeometry>
        </mxCell>
        <mxCell id="n26gRQSFjIvoSWG-YcQ6-13" value="" style="endArrow=none;html=1;rounded=0;exitX=1;exitY=0.5;exitDx=0;exitDy=0;" parent="2z16GnawZwJ3g6S01oZl-38" source="Uw-pVoqwRQZvUnRisrzm-2" target="Uw-pVoqwRQZvUnRisrzm-3" edge="1">
          <mxGeometry width="50" height="50" relative="1" as="geometry">
            <mxPoint x="413.33333333333337" y="216" as="sourcePoint" />
            <mxPoint x="470.7407407407408" y="156" as="targetPoint" />
          </mxGeometry>
        </mxCell>
        <mxCell id="n26gRQSFjIvoSWG-YcQ6-22" value="" style="endArrow=classic;html=1;rounded=0;" parent="2z16GnawZwJ3g6S01oZl-38" edge="1">
          <mxGeometry width="50" height="50" relative="1" as="geometry">
            <mxPoint x="80.37037037037038" y="36" as="sourcePoint" />
            <mxPoint x="149.2592592592593" y="36" as="targetPoint" />
          </mxGeometry>
        </mxCell>
        <mxCell id="n26gRQSFjIvoSWG-YcQ6-23" value="" style="endArrow=classic;html=1;rounded=0;" parent="2z16GnawZwJ3g6S01oZl-38" edge="1">
          <mxGeometry width="50" height="50" relative="1" as="geometry">
            <mxPoint x="383.4814814814816" y="36" as="sourcePoint" />
            <mxPoint x="452.3703703703704" y="36" as="targetPoint" />
          </mxGeometry>
        </mxCell>
        <mxCell id="2z16GnawZwJ3g6S01oZl-13" value="&lt;font style=&quot;font-size: 15px;&quot;&gt;1. startInterface()&lt;/font&gt;" style="text;html=1;align=center;verticalAlign=middle;resizable=0;points=[];autosize=1;strokeColor=none;fillColor=none;" parent="2z16GnawZwJ3g6S01oZl-38" vertex="1">
          <mxGeometry x="337.5555555555556" y="84" width="140" height="30" as="geometry" />
        </mxCell>
        <mxCell id="2z16GnawZwJ3g6S01oZl-14" value="" style="endArrow=classic;html=1;rounded=0;" parent="2z16GnawZwJ3g6S01oZl-38" edge="1">
          <mxGeometry width="50" height="50" relative="1" as="geometry">
            <mxPoint x="452.3703703703704" y="72.00000000000007" as="sourcePoint" />
            <mxPoint x="383.4814814814816" y="72.00000000000007" as="targetPoint" />
          </mxGeometry>
        </mxCell>
        <mxCell id="2z16GnawZwJ3g6S01oZl-15" value="&lt;font style=&quot;font-size: 15px;&quot;&gt;2. selectLogout()&lt;/font&gt;" style="text;html=1;align=center;verticalAlign=middle;resizable=0;points=[];autosize=1;strokeColor=none;fillColor=none;" parent="2z16GnawZwJ3g6S01oZl-38" vertex="1">
          <mxGeometry x="40.18518518518519" width="140" height="30" as="geometry" />
        </mxCell>
        <mxCell id="2z16GnawZwJ3g6S01oZl-16" value="&lt;font style=&quot;font-size: 15px;&quot;&gt;2.1 logout()&lt;/font&gt;" style="text;html=1;align=center;verticalAlign=middle;resizable=0;points=[];autosize=1;strokeColor=none;fillColor=none;" parent="2z16GnawZwJ3g6S01oZl-38" vertex="1">
          <mxGeometry x="355.925925925926" width="100" height="30" as="geometry" />
        </mxCell>
        <mxCell id="CvlLujGHtmnseyJ1YzDa-12" value="&lt;div style=&quot;text-align: center;&quot;&gt;&lt;span style=&quot;background-color: initial; font-size: 18px;&quot;&gt;로그아웃&lt;/span&gt;&lt;/div&gt;" style="text;whiteSpace=wrap;html=1;" parent="7p5_hDNYckGtaCDeZ9yD-5" vertex="1">
          <mxGeometry width="80" height="40" as="geometry" />
        </mxCell>
        <mxCell id="CvlLujGHtmnseyJ1YzDa-15" value=":Member" style="rounded=0;whiteSpace=wrap;html=1;movable=1;resizable=1;rotatable=1;deletable=1;editable=1;locked=0;connectable=1;align=left;" parent="7p5_hDNYckGtaCDeZ9yD-5" vertex="1">
          <mxGeometry x="545.7" y="270" width="160" height="56.9" as="geometry" />
        </mxCell>
        <mxCell id="CvlLujGHtmnseyJ1YzDa-19" value="" style="endArrow=none;html=1;rounded=0;exitX=0.5;exitY=0;exitDx=0;exitDy=0;entryX=0.5;entryY=1;entryDx=0;entryDy=0;" parent="7p5_hDNYckGtaCDeZ9yD-5" source="CvlLujGHtmnseyJ1YzDa-15" target="Uw-pVoqwRQZvUnRisrzm-3" edge="1">
          <mxGeometry width="50" height="50" relative="1" as="geometry">
            <mxPoint x="1161" y="307" as="sourcePoint" />
            <mxPoint x="1160" y="220" as="targetPoint" />
          </mxGeometry>
        </mxCell>
        <mxCell id="CvlLujGHtmnseyJ1YzDa-24" value="" style="endArrow=classic;html=1;rounded=0;" parent="7p5_hDNYckGtaCDeZ9yD-5" edge="1">
          <mxGeometry width="50" height="50" relative="1" as="geometry">
            <mxPoint x="610" y="200" as="sourcePoint" />
            <mxPoint x="610" y="260" as="targetPoint" />
          </mxGeometry>
        </mxCell>
        <mxCell id="CvlLujGHtmnseyJ1YzDa-27" value="&lt;font style=&quot;font-size: 15px;&quot;&gt;2.1.1 setLogout()&lt;/font&gt;" style="text;html=1;align=center;verticalAlign=middle;resizable=0;points=[];autosize=1;strokeColor=none;fillColor=none;" parent="7p5_hDNYckGtaCDeZ9yD-5" vertex="1">
          <mxGeometry x="480.0037931034484" y="219.99896551724146" width="140" height="30" as="geometry" />
        </mxCell>
        <mxCell id="7p5_hDNYckGtaCDeZ9yD-6" value="" style="group" vertex="1" connectable="0" parent="1">
          <mxGeometry x="300" y="-1780" width="1010" height="300" as="geometry" />
        </mxCell>
        <mxCell id="CvlLujGHtmnseyJ1YzDa-3" value="" style="rounded=0;whiteSpace=wrap;html=1;fillColor=none;" parent="7p5_hDNYckGtaCDeZ9yD-6" vertex="1">
          <mxGeometry width="1010" height="300" as="geometry" />
        </mxCell>
        <mxCell id="2z16GnawZwJ3g6S01oZl-37" value="" style="group;strokeColor=none;" parent="7p5_hDNYckGtaCDeZ9yD-6" vertex="1" connectable="0">
          <mxGeometry x="87.53333333333333" y="45" width="834.9333333333334" height="150" as="geometry" />
        </mxCell>
        <mxCell id="GkUKL7oNnA0jOqPk9D3w-5" value="사용자" style="shape=umlActor;verticalLabelPosition=bottom;verticalAlign=top;html=1;outlineConnect=0;" parent="2z16GnawZwJ3g6S01oZl-37" vertex="1">
          <mxGeometry x="13.466666666666667" y="10.90909090909091" width="55.790476190476184" height="87.27272727272728" as="geometry" />
        </mxCell>
        <mxCell id="GkUKL7oNnA0jOqPk9D3w-23" value=":AuthUI" style="rounded=0;whiteSpace=wrap;html=1;align=left;" parent="2z16GnawZwJ3g6S01oZl-37" vertex="1">
          <mxGeometry x="223.16190476190474" y="21.81818181818182" width="167.37142857142854" height="65.45454545454545" as="geometry" />
        </mxCell>
        <mxCell id="GkUKL7oNnA0jOqPk9D3w-24" value=":Auth" style="rounded=0;whiteSpace=wrap;html=1;align=left;" parent="2z16GnawZwJ3g6S01oZl-37" vertex="1">
          <mxGeometry x="557.9047619047618" y="21.81818181818182" width="167.37142857142854" height="65.45454545454545" as="geometry" />
        </mxCell>
        <mxCell id="n26gRQSFjIvoSWG-YcQ6-8" value="" style="endArrow=none;html=1;rounded=0;exitX=0.5;exitY=0.5;exitDx=0;exitDy=0;exitPerimeter=0;" parent="2z16GnawZwJ3g6S01oZl-37" source="GkUKL7oNnA0jOqPk9D3w-5" target="GkUKL7oNnA0jOqPk9D3w-23" edge="1">
          <mxGeometry width="50" height="50" relative="1" as="geometry">
            <mxPoint x="83.68571428571427" y="229.09090909090912" as="sourcePoint" />
            <mxPoint x="153.4238095238095" y="174.54545454545456" as="targetPoint" />
          </mxGeometry>
        </mxCell>
        <mxCell id="n26gRQSFjIvoSWG-YcQ6-9" value="" style="endArrow=none;html=1;rounded=0;exitX=1;exitY=0.5;exitDx=0;exitDy=0;entryX=0;entryY=0.5;entryDx=0;entryDy=0;" parent="2z16GnawZwJ3g6S01oZl-37" source="GkUKL7oNnA0jOqPk9D3w-23" target="GkUKL7oNnA0jOqPk9D3w-24" edge="1">
          <mxGeometry width="50" height="50" relative="1" as="geometry">
            <mxPoint x="432.3761904761904" y="109.09090909090911" as="sourcePoint" />
            <mxPoint x="502.1142857142857" y="54.545454545454554" as="targetPoint" />
          </mxGeometry>
        </mxCell>
        <mxCell id="n26gRQSFjIvoSWG-YcQ6-20" value="" style="endArrow=classic;html=1;rounded=0;" parent="2z16GnawZwJ3g6S01oZl-37" edge="1">
          <mxGeometry width="50" height="50" relative="1" as="geometry">
            <mxPoint x="97.63333333333334" y="43.63636363636364" as="sourcePoint" />
            <mxPoint x="181.31904761904758" y="43.63636363636364" as="targetPoint" />
          </mxGeometry>
        </mxCell>
        <mxCell id="n26gRQSFjIvoSWG-YcQ6-21" value="" style="endArrow=classic;html=1;rounded=0;" parent="2z16GnawZwJ3g6S01oZl-37" edge="1">
          <mxGeometry width="50" height="50" relative="1" as="geometry">
            <mxPoint x="439.3499999999999" y="43.63636363636364" as="sourcePoint" />
            <mxPoint x="523.0357142857142" y="43.63636363636364" as="targetPoint" />
          </mxGeometry>
        </mxCell>
        <mxCell id="2z16GnawZwJ3g6S01oZl-7" value="&lt;font style=&quot;font-size: 15px;&quot;&gt;2. selectLogin()&lt;/font&gt;" style="text;html=1;align=center;verticalAlign=middle;resizable=0;points=[];autosize=1;strokeColor=none;fillColor=none;" parent="2z16GnawZwJ3g6S01oZl-37" vertex="1">
          <mxGeometry x="55.790476190476184" width="130" height="30" as="geometry" />
        </mxCell>
        <mxCell id="2z16GnawZwJ3g6S01oZl-8" value="&lt;font style=&quot;font-size: 15px;&quot;&gt;1. startInterface()&lt;/font&gt;" style="text;html=1;align=center;verticalAlign=middle;resizable=0;points=[];autosize=1;strokeColor=none;fillColor=none;" parent="2z16GnawZwJ3g6S01oZl-37" vertex="1">
          <mxGeometry x="376.58571428571423" y="87.27272727272728" width="140" height="30" as="geometry" />
        </mxCell>
        <mxCell id="2z16GnawZwJ3g6S01oZl-9" value="" style="endArrow=classic;html=1;rounded=0;" parent="2z16GnawZwJ3g6S01oZl-37" edge="1">
          <mxGeometry width="50" height="50" relative="1" as="geometry">
            <mxPoint x="516.0619047619047" y="76.36363636363645" as="sourcePoint" />
            <mxPoint x="432.3761904761904" y="76.36363636363645" as="targetPoint" />
          </mxGeometry>
        </mxCell>
        <mxCell id="2z16GnawZwJ3g6S01oZl-10" value="&lt;font style=&quot;font-size: 15px;&quot;&gt;2.1 login()&lt;/font&gt;" style="text;html=1;align=center;verticalAlign=middle;resizable=0;points=[];autosize=1;strokeColor=none;fillColor=none;" parent="2z16GnawZwJ3g6S01oZl-37" vertex="1">
          <mxGeometry x="418.4285714285714" width="90" height="30" as="geometry" />
        </mxCell>
        <mxCell id="CvlLujGHtmnseyJ1YzDa-23" value="" style="endArrow=classic;html=1;rounded=0;" parent="2z16GnawZwJ3g6S01oZl-37" edge="1">
          <mxGeometry width="50" height="50" relative="1" as="geometry">
            <mxPoint x="632.4666666666667" y="105" as="sourcePoint" />
            <mxPoint x="632.4666666666667" y="165" as="targetPoint" />
          </mxGeometry>
        </mxCell>
        <mxCell id="CvlLujGHtmnseyJ1YzDa-5" value="&lt;span style=&quot;font-size: 18px;&quot;&gt;로그인&lt;/span&gt;" style="text;html=1;align=center;verticalAlign=middle;resizable=0;points=[];autosize=1;strokeColor=none;fillColor=none;" parent="7p5_hDNYckGtaCDeZ9yD-6" vertex="1">
          <mxGeometry width="70" height="40" as="geometry" />
        </mxCell>
        <mxCell id="CvlLujGHtmnseyJ1YzDa-14" value=":Member" style="rounded=0;whiteSpace=wrap;html=1;movable=1;resizable=1;rotatable=1;deletable=1;editable=1;locked=0;connectable=1;align=left;" parent="7p5_hDNYckGtaCDeZ9yD-6" vertex="1">
          <mxGeometry x="650" y="219" width="160" height="56.9" as="geometry" />
        </mxCell>
        <mxCell id="CvlLujGHtmnseyJ1YzDa-18" value="" style="endArrow=none;html=1;rounded=0;exitX=0.5;exitY=0;exitDx=0;exitDy=0;entryX=0.5;entryY=1;entryDx=0;entryDy=0;" parent="7p5_hDNYckGtaCDeZ9yD-6" source="CvlLujGHtmnseyJ1YzDa-14" target="GkUKL7oNnA0jOqPk9D3w-24" edge="1">
          <mxGeometry width="50" height="50" relative="1" as="geometry">
            <mxPoint x="1160" y="230" as="sourcePoint" />
            <mxPoint x="1210" y="180" as="targetPoint" />
          </mxGeometry>
        </mxCell>
        <mxCell id="CvlLujGHtmnseyJ1YzDa-26" value="&lt;font style=&quot;font-size: 15px;&quot;&gt;2.1.1 setLogin()&lt;/font&gt;" style="text;html=1;align=center;verticalAlign=middle;resizable=0;points=[];autosize=1;strokeColor=none;fillColor=none;" parent="7p5_hDNYckGtaCDeZ9yD-6" vertex="1">
          <mxGeometry x="579.0037931034484" y="164.99896551724146" width="130" height="30" as="geometry" />
        </mxCell>
        <mxCell id="7p5_hDNYckGtaCDeZ9yD-7" value="" style="group" vertex="1" connectable="0" parent="1">
          <mxGeometry x="300" y="-2160" width="1010" height="330" as="geometry" />
        </mxCell>
        <mxCell id="2z16GnawZwJ3g6S01oZl-43" value="" style="group;strokeColor=default;container=0;" parent="7p5_hDNYckGtaCDeZ9yD-7" vertex="1" connectable="0">
          <mxGeometry width="1010" height="330" as="geometry" />
        </mxCell>
        <mxCell id="2z16GnawZwJ3g6S01oZl-44" value="사용자&lt;br&gt;" style="shape=umlActor;verticalLabelPosition=bottom;verticalAlign=top;html=1;outlineConnect=0;" parent="7p5_hDNYckGtaCDeZ9yD-7" vertex="1">
          <mxGeometry x="17.83333333333333" y="68.27586206896558" width="36.896551724137936" height="91.0344827586207" as="geometry" />
        </mxCell>
        <mxCell id="2z16GnawZwJ3g6S01oZl-45" value=":AuthUI" style="rounded=0;whiteSpace=wrap;html=1;movable=1;resizable=1;rotatable=1;deletable=1;editable=1;locked=0;connectable=1;align=left;" parent="7p5_hDNYckGtaCDeZ9yD-7" vertex="1">
          <mxGeometry x="304.39655172413796" y="85.34482758620697" width="110.68965517241381" height="56.896551724137936" as="geometry" />
        </mxCell>
        <mxCell id="2z16GnawZwJ3g6S01oZl-46" value=":Auth" style="rounded=0;whiteSpace=wrap;html=1;movable=1;resizable=1;rotatable=1;deletable=1;editable=1;locked=0;connectable=1;align=left;" parent="7p5_hDNYckGtaCDeZ9yD-7" vertex="1">
          <mxGeometry x="728.7068965517243" y="85.34482758620697" width="110.68965517241381" height="56.896551724137936" as="geometry" />
        </mxCell>
        <mxCell id="2z16GnawZwJ3g6S01oZl-48" value="" style="endArrow=none;html=1;rounded=0;exitX=0.5;exitY=0.5;exitDx=0;exitDy=0;exitPerimeter=0;entryX=0;entryY=0.5;entryDx=0;entryDy=0;" parent="7p5_hDNYckGtaCDeZ9yD-7" source="2z16GnawZwJ3g6S01oZl-44" target="2z16GnawZwJ3g6S01oZl-45" edge="1">
          <mxGeometry width="50" height="50" relative="1" as="geometry">
            <mxPoint x="101.4655172413793" y="200.27586206896558" as="sourcePoint" />
            <mxPoint x="147.58620689655174" y="143.37931034482767" as="targetPoint" />
          </mxGeometry>
        </mxCell>
        <mxCell id="2z16GnawZwJ3g6S01oZl-49" value="" style="endArrow=none;html=1;rounded=0;exitX=1;exitY=0.5;exitDx=0;exitDy=0;entryX=0;entryY=0.5;entryDx=0;entryDy=0;" parent="7p5_hDNYckGtaCDeZ9yD-7" source="2z16GnawZwJ3g6S01oZl-45" target="2z16GnawZwJ3g6S01oZl-46" edge="1">
          <mxGeometry width="50" height="50" relative="1" as="geometry">
            <mxPoint x="295.1724137931035" y="261.7241379310344" as="sourcePoint" />
            <mxPoint x="341.2931034482759" y="204.8275862068965" as="targetPoint" />
          </mxGeometry>
        </mxCell>
        <mxCell id="2z16GnawZwJ3g6S01oZl-51" value="" style="endArrow=classic;html=1;rounded=0;" parent="7p5_hDNYckGtaCDeZ9yD-7" edge="1">
          <mxGeometry width="50" height="50" relative="1" as="geometry">
            <mxPoint x="110.68965517241381" y="136.55172413793116" as="sourcePoint" />
            <mxPoint x="230.6034482758621" y="137.12068965517233" as="targetPoint" />
          </mxGeometry>
        </mxCell>
        <mxCell id="2z16GnawZwJ3g6S01oZl-52" value="" style="endArrow=classic;html=1;rounded=0;" parent="7p5_hDNYckGtaCDeZ9yD-7" edge="1">
          <mxGeometry width="50" height="50" relative="1" as="geometry">
            <mxPoint x="479.65517241379314" y="91.0344827586207" as="sourcePoint" />
            <mxPoint x="664.1379310344829" y="91.0344827586207" as="targetPoint" />
          </mxGeometry>
        </mxCell>
        <mxCell id="2z16GnawZwJ3g6S01oZl-53" value="" style="endArrow=classic;html=1;rounded=0;" parent="7p5_hDNYckGtaCDeZ9yD-7" edge="1">
          <mxGeometry width="50" height="50" relative="1" as="geometry">
            <mxPoint x="766.8333333333334" y="167.06999999999994" as="sourcePoint" />
            <mxPoint x="766.8333333333334" y="227.07000000000005" as="targetPoint" />
          </mxGeometry>
        </mxCell>
        <mxCell id="2z16GnawZwJ3g6S01oZl-54" value="" style="endArrow=classic;html=1;rounded=0;" parent="7p5_hDNYckGtaCDeZ9yD-7" edge="1">
          <mxGeometry width="50" height="50" relative="1" as="geometry">
            <mxPoint x="664.1379310344829" y="135.41379310344837" as="sourcePoint" />
            <mxPoint x="474.12068965517255" y="135.41379310344837" as="targetPoint" />
          </mxGeometry>
        </mxCell>
        <mxCell id="2z16GnawZwJ3g6S01oZl-55" value="&lt;font style=&quot;font-size: 15px;&quot;&gt;1. startInterface()&lt;/font&gt;" style="text;html=1;align=center;verticalAlign=middle;resizable=0;points=[];autosize=1;strokeColor=none;fillColor=none;" parent="7p5_hDNYckGtaCDeZ9yD-7" vertex="1">
          <mxGeometry x="507.3275862068965" y="142.24137931034488" width="140" height="30" as="geometry" />
        </mxCell>
        <mxCell id="2z16GnawZwJ3g6S01oZl-56" value="&lt;font style=&quot;font-size: 15px;&quot;&gt;2. selectRegister()&lt;/font&gt;" style="text;html=1;align=center;verticalAlign=middle;resizable=0;points=[];autosize=1;strokeColor=none;fillColor=none;" parent="7p5_hDNYckGtaCDeZ9yD-7" vertex="1">
          <mxGeometry x="113.61063218390805" y="64.1400000000001" width="150" height="30" as="geometry" />
        </mxCell>
        <mxCell id="2z16GnawZwJ3g6S01oZl-57" value="&lt;font style=&quot;font-size: 15px;&quot;&gt;2.1 register()&lt;/font&gt;" style="text;html=1;align=center;verticalAlign=middle;resizable=0;points=[];autosize=1;strokeColor=none;fillColor=none;" parent="7p5_hDNYckGtaCDeZ9yD-7" vertex="1">
          <mxGeometry x="523.4049511494253" y="51" width="110" height="30" as="geometry" />
        </mxCell>
        <mxCell id="2z16GnawZwJ3g6S01oZl-61" value=":Member" style="rounded=0;whiteSpace=wrap;html=1;movable=1;resizable=1;rotatable=1;deletable=1;editable=1;locked=0;connectable=1;align=left;" parent="7p5_hDNYckGtaCDeZ9yD-7" vertex="1">
          <mxGeometry x="722.2493850574714" y="250.00344827586207" width="110.68965517241381" height="56.896551724137936" as="geometry" />
        </mxCell>
        <mxCell id="2z16GnawZwJ3g6S01oZl-62" value="" style="endArrow=none;html=1;rounded=0;entryX=0.5;entryY=1;entryDx=0;entryDy=0;exitX=0.569;exitY=-0.005;exitDx=0;exitDy=0;exitPerimeter=0;" parent="7p5_hDNYckGtaCDeZ9yD-7" source="2z16GnawZwJ3g6S01oZl-61" target="2z16GnawZwJ3g6S01oZl-46" edge="1">
          <mxGeometry width="50" height="50" relative="1" as="geometry">
            <mxPoint x="701.0344827586208" y="284.48275862068965" as="sourcePoint" />
            <mxPoint x="793.2758620689656" y="153.62068965517233" as="targetPoint" />
          </mxGeometry>
        </mxCell>
        <mxCell id="2z16GnawZwJ3g6S01oZl-63" value="&lt;font style=&quot;font-size: 15px;&quot;&gt;2.1.1 addMember()&lt;/font&gt;" style="text;html=1;align=center;verticalAlign=middle;resizable=0;points=[];autosize=1;strokeColor=none;fillColor=none;" parent="7p5_hDNYckGtaCDeZ9yD-7" vertex="1">
          <mxGeometry x="619.9993821839082" y="182.0689655172414" width="150" height="30" as="geometry" />
        </mxCell>
        <mxCell id="CvlLujGHtmnseyJ1YzDa-1" value="&lt;font style=&quot;font-size: 18px;&quot;&gt;회원가입&lt;/font&gt;" style="text;html=1;align=center;verticalAlign=middle;resizable=0;points=[];autosize=1;strokeColor=none;fillColor=none;" parent="7p5_hDNYckGtaCDeZ9yD-7" vertex="1">
          <mxGeometry width="90" height="40" as="geometry" />
        </mxCell>
      </root>
    </mxGraphModel>
  </diagram>
</mxfile>
